<svg width="20" height="20" viewBox="0 0 20 20" fill="none" xmlns="http://www.w3.org/2000/svg">
<g clip-path="url(#clip0_12164_437)">
<path fill-rule="evenodd" clip-rule="evenodd" d="M0.624998 7.5C0.531477 7.50004 0.439157 7.52106 0.354842 7.56152C0.270527 7.60198 0.196366 7.66085 0.137827 7.73378C0.0792885 7.80672 0.0378632 7.89186 0.016605 7.98293C-0.00465315 8.074 -0.00520222 8.16869 0.0149983 8.26L2.08 17.5525C2.23414 18.2466 2.62034 18.8673 3.17485 19.3123C3.72936 19.7573 4.41903 19.9998 5.13 20H12.37C13.081 19.9998 13.7706 19.7573 14.3251 19.3123C14.8797 18.8673 15.2659 18.2466 15.42 17.5525L15.5837 16.815C16.5399 16.9938 17.5281 16.7941 18.3398 16.2581C19.1515 15.722 19.7231 14.8915 19.934 13.9419C20.1449 12.9923 19.9785 11.9979 19.47 11.1686C18.9615 10.3394 18.1507 9.74018 17.2087 9.4975L17.485 8.26C17.5052 8.16869 17.5047 8.074 17.4834 7.98293C17.4621 7.89186 17.4207 7.80672 17.3622 7.73378C17.3036 7.66085 17.2295 7.60198 17.1452 7.56152C17.0608 7.52106 16.9685 7.50004 16.875 7.5H0.624998ZM16.25 15.625C16.1177 15.6251 15.9856 15.6146 15.855 15.5938L16.9387 10.7212C17.5169 10.8887 18.0152 11.259 18.3424 11.7642C18.6695 12.2694 18.8036 12.8756 18.7198 13.4717C18.6361 14.0677 18.3403 14.6135 17.8866 15.0091C17.433 15.4046 16.8519 15.6233 16.25 15.625ZM3.3 17.2812L1.40375 8.75H16.0962L14.2 17.2812C14.1076 17.6977 13.8759 18.0702 13.5432 18.3373C13.2104 18.6043 12.7966 18.7499 12.37 18.75H5.13C4.70338 18.7499 4.28955 18.6043 3.95684 18.3373C3.62413 18.0702 3.39243 17.6977 3.3 17.2812Z" fill="#101828"/>
<path d="M5.5 0.999999L5.49625 1.005L5.47875 1.02875C5.3878 1.1539 5.30271 1.28321 5.22375 1.41625C5.15667 1.5229 5.09776 1.63447 5.0475 1.75C5.015 1.825 5.005 1.865 5.00125 1.87875V1.88375C5.01567 1.99425 5.05452 2.10015 5.115 2.19375C5.20875 2.36 5.3375 2.53375 5.5 2.75L5.5125 2.765C5.66 2.9625 5.8375 3.19875 5.975 3.44375C6.115 3.69375 6.25 4.0125 6.25 4.375C6.25 4.61 6.16875 4.835 6.10125 4.9925C6.029 5.16009 5.94461 5.32219 5.84875 5.4775C5.75069 5.64141 5.64516 5.80075 5.5325 5.955L5.51 5.98625L5.50375 5.99625L5.50125 5.99875C5.40196 6.13152 5.25399 6.21942 5.0899 6.24309C4.9258 6.26677 4.75902 6.22429 4.62625 6.125C4.49348 6.02571 4.40558 5.87774 4.38191 5.71365C4.35823 5.54955 4.40071 5.38277 4.5 5.25L4.50375 5.245L4.52125 5.22125C4.6122 5.0961 4.69729 4.96679 4.77625 4.83375C4.84333 4.7271 4.90224 4.61553 4.9525 4.5C4.985 4.425 4.995 4.385 4.99875 4.37125C4.98544 4.25912 4.94698 4.15144 4.88625 4.05625C4.77022 3.86232 4.64117 3.67647 4.5 3.5L4.4875 3.485C4.31862 3.26913 4.16412 3.0424 4.025 2.80625C3.85475 2.52466 3.76003 2.2039 3.75 1.875C3.75 1.64 3.83125 1.415 3.89875 1.2575C3.9725 1.085 4.06625 0.914999 4.15125 0.772499C4.25055 0.609364 4.35604 0.450081 4.4675 0.294999L4.49875 0.251249C4.59804 0.118475 4.74601 0.0305821 4.9101 0.00690566C5.0742 -0.0167708 5.24098 0.0257087 5.37375 0.124999C5.50652 0.22429 5.59442 0.372258 5.61809 0.536352C5.64177 0.700446 5.59929 0.867225 5.5 0.999999ZM9.25 0.999999L9.24625 1.005L9.22875 1.02875C9.1378 1.1539 9.05271 1.28321 8.97375 1.41625C8.90667 1.5229 8.84776 1.63447 8.7975 1.75C8.765 1.825 8.755 1.865 8.75125 1.87875V1.88375C8.76567 1.99425 8.80452 2.10015 8.865 2.19375C8.95875 2.36 9.0875 2.53375 9.25 2.75L9.2625 2.765C9.41 2.9625 9.5875 3.19875 9.725 3.44375C9.865 3.69375 10 4.0125 10 4.375C10 4.61 9.91875 4.835 9.85125 4.9925C9.779 5.16009 9.69461 5.32219 9.59875 5.4775C9.50069 5.64141 9.39516 5.80075 9.2825 5.955L9.26 5.98625L9.25375 5.99625L9.25125 5.99875C9.15196 6.13152 9.00399 6.21942 8.8399 6.24309C8.6758 6.26677 8.50902 6.22429 8.37625 6.125C8.24348 6.02571 8.15558 5.87774 8.13191 5.71365C8.10823 5.54955 8.15071 5.38277 8.25 5.25L8.25375 5.245L8.27125 5.22125C8.3622 5.0961 8.44729 4.96679 8.52625 4.83375C8.59333 4.7271 8.65224 4.61553 8.7025 4.5C8.735 4.425 8.745 4.385 8.74875 4.37125C8.73544 4.25912 8.69698 4.15144 8.63625 4.05625C8.52022 3.86232 8.39117 3.67647 8.25 3.5L8.2375 3.485C8.06862 3.26913 7.91412 3.0424 7.775 2.80625C7.60475 2.52466 7.51003 2.2039 7.5 1.875C7.5 1.64 7.58125 1.415 7.64875 1.2575C7.7225 1.085 7.81625 0.914999 7.90125 0.772499C8.00055 0.609364 8.10604 0.450081 8.2175 0.294999L8.24875 0.251249C8.34804 0.118475 8.49601 0.0305821 8.6601 0.00690565C8.8242 -0.0167708 8.99098 0.0257087 9.12375 0.124999C9.25652 0.22429 9.34442 0.372258 9.36809 0.536352C9.39177 0.700446 9.34929 0.867225 9.25 0.999999ZM13 0.999999L12.9963 1.005L12.9788 1.02875C12.8878 1.1539 12.8027 1.28321 12.7238 1.41625C12.6567 1.5229 12.5978 1.63447 12.5475 1.75C12.515 1.825 12.505 1.865 12.5013 1.87875V1.88375C12.5157 1.99425 12.5545 2.10015 12.615 2.19375C12.7087 2.36 12.8375 2.53375 13 2.75L13.0125 2.765C13.16 2.9625 13.3375 3.19875 13.475 3.44375C13.615 3.69375 13.75 4.0125 13.75 4.375C13.75 4.61 13.6687 4.835 13.6012 4.9925C13.529 5.16009 13.4446 5.32219 13.3488 5.4775C13.2511 5.64139 13.146 5.80072 13.0338 5.955L13.01 5.98625L13.0037 5.99625L13.0013 5.99875C12.902 6.13152 12.754 6.21942 12.5899 6.24309C12.4258 6.26677 12.259 6.22429 12.1263 6.125C11.9935 6.02571 11.9056 5.87774 11.8819 5.71365C11.8582 5.54955 11.9007 5.38277 12 5.25L12.0037 5.245L12.0212 5.22125C12.1122 5.0961 12.1973 4.96679 12.2762 4.83375C12.3433 4.7271 12.4022 4.61553 12.4525 4.5C12.485 4.425 12.495 4.385 12.4987 4.37125C12.4854 4.25912 12.447 4.15144 12.3863 4.05625C12.2702 3.86232 12.1412 3.67647 12 3.5L11.9875 3.485C11.8186 3.26913 11.6641 3.0424 11.525 2.80625C11.3547 2.52466 11.26 2.2039 11.25 1.875C11.25 1.64 11.3313 1.415 11.3988 1.2575C11.4725 1.085 11.5663 0.914999 11.6512 0.772499C11.7505 0.609364 11.856 0.450081 11.9675 0.294999L11.9987 0.251249C12.098 0.118475 12.246 0.0305821 12.4101 0.00690565C12.5742 -0.0167708 12.741 0.0257087 12.8737 0.124999C13.0065 0.22429 13.0944 0.372258 13.1181 0.536352C13.1418 0.700446 13.0993 0.867225 13 0.999999Z" fill="#101828"/>
</g>
<defs>
<clipPath id="clip0_12164_437">
<rect width="20" height="20" fill="white"/>
</clipPath>
</defs>
</svg>
